<?xml version="1.0" ?>
<svg xmlns="http://www.w3.org/2000/svg" width="1104" height="1104" version="1.1" viewBox="-552 -552 1104 1104">
  <style>
    .dark { fill: #804005; }
    .light { fill: #DEB887; }
    .rankfile { fill: #666666; font-size: 24px; font-family: Arial; }
  </style>
  <!-- Chessboard squares -->
  <rect class="dark" x="-512" y="-512" width="128" height="128"/>
  <rect class="light" x="-384" y="-512" width="128" height="128"/>
  <rect class="dark" x="-256" y="-512" width="128" height="128"/>
  <rect class="light" x="-128" y="-512" width="128" height="128"/>
  <rect class="dark" x="0" y="-512" width="128" height="128"/>
  <rect class="light" x="128" y="-512" width="128" height="128"/>
  <rect class="dark" x="256" y="-512" width="128" height="128"/>
  <rect class="light" x="384" y="-512" width="128" height="128"/>
  
  <rect class="light" x="-512" y="-384" width="128" height="128"/>
  <rect class="dark" x="-384" y="-384" width="128" height="128"/>
  <rect class="light" x="-256" y="-384" width="128" height="128"/>
  <rect class="dark" x="-128" y="-384" width="128" height="128"/>
  <rect class="light" x="0" y="-384" width="128" height="128"/>
  <rect class="dark" x="128" y="-384" width="128" height="128"/>
  <rect class="light" x="256" y="-384" width="128" height="128"/>
  <rect class="dark" x="384" y="-384" width="128" height="128"/>

  <rect class="dark" x="-512" y="-256" width="128" height="128"/>
  <rect class="light" x="-384" y="-256" width="128" height="128"/>
  <rect class="dark" x="-256" y="-256" width="128" height="128"/>
  <rect class="light" x="-128" y="-256" width="128" height="128"/>
  <rect class="dark" x="0" y="-256" width="128" height="128"/>
  <rect class="light" x="128" y="-256" width="128" height="128"/>
  <rect class="dark" x="256" y="-256" width="128" height="128"/>
  <rect class="light" x="384" y="-256" width="128" height="128"/>

  <rect class="light" x="-512" y="-128" width="128" height="128"/>
  <rect class="dark" x="-384" y="-128" width="128" height="128"/>
  <rect class="light" x="-256" y="-128" width="128" height="128"/>
  <rect class="dark" x="-128" y="-128" width="128" height="128"/>
  <rect class="light" x="0" y="-128" width="128" height="128"/>
  <rect class="dark" x="128" y="-128" width="128" height="128"/>
  <rect class="light" x="256" y="-128" width="128" height="128"/>
  <rect class="dark" x="384" y="-128" width="128" height="128"/>

  <rect class="dark" x="-512" y="0" width="128" height="128"/>
  <rect class="light" x="-384" y="0" width="128" height="128"/>
  <rect class="dark" x="-256" y="0" width="128" height="128"/>
  <rect class="light" x="-128" y="0" width="128" height="128"/>
  <rect class="dark" x="0" y="0" width="128" height="128"/>
  <rect class="light" x="128" y="0" width="128" height="128"/>
  <rect class="dark" x="256" y="0" width="128" height="128"/>
  <rect class="light" x="384" y="0" width="128" height="128"/>

  <rect class="light" x="-512" y="128" width="128" height="128"/>
  <rect class="dark" x="-384" y="128" width="128" height="128"/>
  <rect class="light" x="-256" y="128" width="128" height="128"/>
  <rect class="dark" x="-128" y="128" width="128" height="128"/>
  <rect class="light" x="0" y="128" width="128" height="128"/>
  <rect class="dark" x="128" y="128" width="128" height="128"/>
  <rect class="light" x="256" y="128" width="128" height="128"/>
  <rect class="dark" x="384" y="128" width="128" height="128"/>

  <rect class="dark" x="-512" y="256" width="128" height="128"/>
  <rect class="light" x="-384" y="256" width="128" height="128"/>
  <rect class="dark" x="-256" y="256" width="128" height="128"/>
  <rect class="light" x="-128" y="256" width="128" height="128"/>
  <rect class="dark" x="0" y="256" width="128" height="128"/>
  <rect class="light" x="128" y="256" width="128" height="128"/>
  <rect class="dark" x="256" y="256" width="128" height="128"/>
  <rect class="light" x="384" y="256" width="128" height="128"/>

  <rect class="light" x="-512" y="384" width="128" height="128"/>
  <rect class="dark" x="-384" y="384" width="128" height="128"/>
  <rect class="light" x="-256" y="384" width="128" height="128"/>
  <rect class="dark" x="-128" y="384" width="128" height="128"/>
  <rect class="light" x="0" y="384" width="128" height="128"/>
  <rect class="dark" x="128" y="384" width="128" height="128"/>
  <rect class="light" x="256" y="384" width="128" height="128"/>
  <rect class="dark" x="384" y="384" width="128" height="128"/>

  <!-- Ranks (1-8) -->
  <text class="rankfile" x="-540" y="-440">8</text>
  <text class="rankfile" x="-540" y="-312">7</text>
  <text class="rankfile" x="-540" y="-184">6</text>
  <text class="rankfile" x="-540" y="-56">5</text>
  <text class="rankfile" x="-540" y="72">4</text>
  <text class="rankfile" x="-540" y="200">3</text>
  <text class="rankfile" x="-540" y="328">2</text>
  <text class="rankfile" x="-540" y="456">1</text>

  <!-- Files (a-h) -->
  <text class="rankfile" x="-488" y="540">a</text>
  <text class="rankfile" x="-360" y="540">b</text>
  <text class="rankfile" x="-232" y="540">c</text>
  <text class="rankfile" x="-104" y="540">d</text>
  <text class="rankfile" x="24" y="540">e</text>
  <text class="rankfile" x="152" y="540">f</text>
  <text class="rankfile" x="280" y="540">g</text>
  <text class="rankfile" x="408" y="540">h</text>
</svg>
